<svg xmlns="http://www.w3.org/2000/svg" width="677" height="578" viewBox="0 0 677 578">
<g>
<path d="M 0.00 0.00 L 677.00 0.00 L 677.00 578.00 L 0.00 578.00 ZM 113.00 524.00 C113.00,537.75 113.35,549.00 113.78,549.00 C114.21,549.00 115.61,548.26 116.90,547.36 C118.19,546.46 122.00,544.20 125.37,542.35 C128.74,540.50 134.57,537.30 138.32,535.24 C142.07,533.18 147.54,530.15 150.46,528.50 C153.38,526.85 159.76,523.36 164.64,520.74 C169.51,518.13 174.18,515.59 175.00,515.10 C175.82,514.61 178.41,513.41 180.75,512.45 C183.09,511.49 185.00,510.40 185.00,510.03 C185.00,509.31 191.52,506.00 192.94,506.00 C193.42,506.00 196.59,504.42 200.00,502.50 C203.41,500.58 206.76,499.00 207.46,499.00 C208.15,499.00 211.14,497.71 214.11,496.14 C217.07,494.56 220.62,492.94 222.00,492.54 C223.38,492.14 229.45,490.00 235.50,487.80 C246.19,483.90 246.78,483.80 256.50,484.25 C265.02,484.65 267.85,485.26 275.61,488.36 C280.62,490.36 285.17,492.00 285.73,492.00 C286.29,492.00 288.92,492.96 291.57,494.13 C295.81,496.01 297.61,496.20 306.45,495.71 C311.98,495.40 318.96,494.39 321.97,493.47 C331.74,490.47 337.89,491.59 352.58,499.04 L 365.32 505.50 L 376.45 506.00 C387.38,506.49 387.67,506.57 392.79,510.25 C395.66,512.31 398.26,514.00 398.57,514.00 C398.88,514.00 400.59,515.11 402.37,516.47 C406.68,519.76 411.93,521.91 421.00,524.10 C432.94,526.98 437.07,528.14 444.00,530.57 C458.23,535.55 461.11,536.00 478.96,536.00 C493.54,536.00 497.75,535.63 506.96,533.55 C521.82,530.20 538.36,528.00 548.78,528.00 C555.60,527.99 558.18,527.58 560.63,526.08 C563.65,524.24 569.69,517.30 568.89,516.61 C567.37,515.30 563.71,514.00 561.52,514.00 C559.41,514.00 558.53,513.18 556.99,509.75 C555.94,507.41 555.49,505.36 555.98,505.19 C556.48,505.01 560.96,505.58 565.94,506.44 C580.91,509.02 599.42,507.90 612.00,503.64 C614.47,502.80 619.54,501.56 623.25,500.89 L 630.00 499.65 L 630.00 492.31 L 618.75 491.62 C612.56,491.25 604.58,490.33 601.00,489.59 C590.12,487.33 570.95,482.03 566.60,480.08 C564.35,479.07 561.38,477.94 560.00,477.58 C557.71,476.98 541.50,469.85 538.00,467.90 C537.17,467.44 532.11,464.73 526.75,461.87 C521.39,459.01 517.00,456.30 517.00,455.84 C517.00,455.38 516.21,454.99 515.25,454.97 C514.29,454.95 511.70,453.60 509.50,451.97 C507.30,450.34 503.99,448.31 502.15,447.45 C500.30,446.59 497.93,445.09 496.88,444.10 C495.83,443.12 493.74,441.69 492.23,440.91 C490.73,440.13 487.70,438.31 485.50,436.86 C483.30,435.41 479.78,433.50 477.69,432.63 L 473.87 431.05 L 476.93 426.61 C478.61,424.17 481.31,421.12 482.93,419.83 C484.56,418.55 487.81,415.81 490.15,413.75 C492.50,411.69 494.73,410.00 495.11,410.00 C495.49,410.00 498.12,408.44 500.96,406.53 C504.21,404.34 507.89,402.82 510.90,402.42 C514.76,401.91 516.20,401.12 518.43,398.32 C519.95,396.42 521.04,394.77 520.85,394.66 C520.66,394.54 517.19,392.89 513.16,390.99 C505.64,387.44 498.00,380.46 498.00,377.13 C498.00,374.51 492.22,361.43 488.87,356.47 C487.20,353.99 484.41,351.24 482.67,350.34 C480.93,349.45 478.47,347.92 477.22,346.94 C472.88,343.56 454.83,340.15 435.50,339.04 C404.31,337.26 400.46,336.49 387.89,329.48 C381.39,325.86 372.69,313.65 371.09,305.91 C370.59,303.49 369.40,297.90 368.46,293.50 C366.25,283.18 366.23,254.43 368.42,226.50 C370.62,198.34 370.49,191.00 367.59,182.80 C366.30,179.12 364.28,174.90 363.12,173.42 C361.95,171.94 361.00,170.26 361.00,169.69 C361.00,169.12 358.75,166.07 356.00,162.91 C353.25,159.74 351.00,156.77 351.00,156.30 C351.00,155.83 349.17,153.01 346.93,150.03 C342.80,144.53 332.78,124.74 331.62,119.78 C331.27,118.29 328.96,112.89 326.49,107.78 C324.03,102.68 322.01,97.99 322.01,97.36 C322.00,96.73 319.98,92.13 317.51,87.13 C315.04,82.13 312.59,76.34 312.07,74.27 C311.55,72.20 309.07,64.65 306.57,57.50 C304.07,50.35 302.03,43.60 302.03,42.50 C302.03,39.89 293.92,5.69 293.12,4.89 C291.59,3.38 285.93,6.31 282.85,10.19 C277.03,17.54 277.62,26.39 285.70,53.00 C287.12,57.67 288.86,62.86 289.57,64.52 C292.71,71.81 292.90,72.75 291.58,74.56 C288.66,78.56 286.06,74.37 278.21,53.00 C275.48,45.58 272.75,36.80 272.13,33.50 C269.81,21.17 269.42,20.43 264.05,18.12 C261.34,16.95 257.84,16.00 256.27,16.00 C253.75,16.00 253.28,16.50 252.26,20.32 C251.63,22.69 249.66,27.75 247.89,31.57 C244.28,39.36 242.00,49.68 242.00,58.25 C242.00,61.41 241.57,64.00 241.04,64.00 C239.43,64.00 235.00,58.76 232.50,53.92 C230.52,50.08 229.17,48.90 224.19,46.67 C220.92,45.20 217.99,44.00 217.67,44.00 C216.92,44.00 214.33,49.81 213.66,53.00 C213.37,54.38 212.67,57.30 212.09,59.50 C210.80,64.45 210.77,75.99 212.03,82.00 C212.55,84.47 213.61,89.88 214.39,94.00 C215.17,98.12 216.17,102.40 216.60,103.50 C217.74,106.35 211.27,100.84 208.22,96.36 C205.27,92.03 198.45,88.39 196.42,90.06 C195.64,90.71 195.00,91.68 195.00,92.20 C195.00,92.73 193.50,95.49 191.67,98.33 C185.87,107.35 185.00,108.90 184.99,110.21 C184.99,110.92 184.37,112.69 183.61,114.14 C178.46,124.01 176.66,136.77 179.06,146.33 C180.63,152.55 179.14,160.21 176.12,161.50 C173.78,162.50 173.77,162.53 174.45,175.18 L 175.12 187.86 L 171.45 194.95 C168.42,200.82 167.90,202.67 168.46,205.65 C169.16,209.34 175.43,222.95 179.10,228.73 L 181.16 231.95 L 177.10 232.60 C173.88,233.11 172.64,233.95 171.03,236.67 C169.10,239.95 169.09,240.18 170.78,241.99 C171.75,243.04 174.31,247.51 176.46,251.93 L 180.38 259.96 L 178.19 262.30 C176.46,264.14 176.00,265.84 176.00,270.36 C176.00,275.97 176.11,276.19 181.50,281.54 C187.48,287.48 187.56,287.75 185.86,298.01 C184.90,303.82 184.97,305.41 186.27,308.20 C192.07,320.55 194.85,326.83 195.50,329.00 C195.91,330.38 198.22,335.26 200.62,339.85 C203.03,344.44 205.04,348.71 205.08,349.35 C205.12,349.98 206.45,352.52 208.03,355.00 C209.60,357.48 212.31,362.05 214.04,365.16 C215.77,368.27 218.03,371.72 219.06,372.83 C220.09,373.94 221.85,376.35 222.96,378.18 C228.30,386.97 247.20,405.53 257.65,412.24 C261.71,414.84 261.79,414.99 260.94,418.76 C259.27,426.20 251.72,436.59 245.23,440.36 C238.19,444.46 234.09,446.36 229.61,447.63 C216.43,451.36 209.92,452.88 203.00,453.86 C187.84,455.99 140.18,461.25 129.50,461.96 C112.20,463.12 78.00,467.39 78.00,468.40 C78.00,469.78 84.05,477.44 89.52,483.00 C93.52,487.06 99.07,492.00 99.63,492.00 C99.98,492.00 102.45,493.58 105.13,495.50 C107.81,497.42 110.68,499.00 111.50,499.00 C112.79,499.00 113.00,502.46 113.00,524.00 Z" fill="rgb(31,32,32)"/>
<path d="M 113.00 524.00 C113.00,502.46 112.79,499.00 111.50,499.00 C110.68,499.00 107.81,497.42 105.13,495.50 C102.45,493.58 99.98,492.00 99.63,492.00 C99.07,492.00 93.52,487.06 89.52,483.00 C84.05,477.44 78.00,469.78 78.00,468.40 C78.00,467.39 112.20,463.12 129.50,461.96 C140.18,461.25 187.84,455.99 203.00,453.86 C209.92,452.88 216.43,451.36 229.61,447.63 C234.09,446.36 238.19,444.46 245.23,440.36 C251.72,436.59 259.27,426.20 260.94,418.76 C261.79,414.99 261.71,414.84 257.65,412.24 C247.20,405.53 228.30,386.97 222.96,378.18 C221.85,376.35 220.09,373.94 219.06,372.83 C218.03,371.72 215.77,368.27 214.04,365.16 C212.31,362.05 209.60,357.48 208.03,355.00 C206.45,352.52 205.12,349.98 205.08,349.35 C205.04,348.71 203.03,344.44 200.62,339.85 C198.22,335.26 195.91,330.38 195.50,329.00 C194.85,326.83 192.07,320.55 186.27,308.20 C184.97,305.41 184.90,303.82 185.86,298.01 C187.56,287.75 187.48,287.48 181.50,281.54 C176.11,276.19 176.00,275.97 176.00,270.36 C176.00,265.84 176.46,264.14 178.19,262.30 L 180.38 259.96 L 176.46 251.93 C174.31,247.51 171.75,243.04 170.78,241.99 C169.09,240.18 169.10,239.95 171.03,236.67 C172.64,233.95 173.88,233.11 177.10,232.60 L 181.16 231.95 L 179.10 228.73 C175.43,222.95 169.16,209.34 168.46,205.65 C167.90,202.67 168.42,200.82 171.45,194.95 L 175.12 187.86 L 174.45 175.18 C173.77,162.53 173.78,162.50 176.12,161.50 C179.14,160.21 180.63,152.55 179.06,146.33 C176.66,136.77 178.46,124.01 183.61,114.14 C184.37,112.69 184.99,110.92 184.99,110.21 C185.00,108.90 185.87,107.35 191.67,98.33 C193.50,95.49 195.00,92.73 195.00,92.20 C195.00,91.68 195.64,90.71 196.42,90.06 C198.45,88.39 205.27,92.03 208.22,96.36 C211.27,100.84 217.74,106.35 216.60,103.50 C216.17,102.40 215.17,98.12 214.39,94.00 C213.61,89.88 212.55,84.47 212.03,82.00 C210.77,75.99 210.80,64.45 212.09,59.50 C212.67,57.30 213.37,54.38 213.66,53.00 C214.33,49.81 216.92,44.00 217.67,44.00 C217.99,44.00 220.92,45.20 224.19,46.67 C229.17,48.90 230.52,50.08 232.50,53.92 C235.00,58.76 239.43,64.00 241.04,64.00 C241.57,64.00 242.00,61.41 242.00,58.25 C242.00,49.68 244.28,39.36 247.89,31.57 C249.66,27.75 251.63,22.69 252.26,20.32 C253.28,16.50 253.75,16.00 256.27,16.00 C257.84,16.00 261.34,16.95 264.05,18.12 C269.42,20.43 269.81,21.17 272.13,33.50 C272.75,36.80 275.48,45.58 278.21,53.00 C286.06,74.37 288.66,78.56 291.58,74.56 C292.90,72.75 292.71,71.81 289.57,64.52 C288.86,62.86 287.12,57.67 285.70,53.00 C277.62,26.39 277.03,17.54 282.85,10.19 C285.93,6.31 291.59,3.38 293.12,4.89 C293.92,5.69 302.03,39.89 302.03,42.50 C302.03,43.60 304.07,50.35 306.57,57.50 C309.07,64.65 311.55,72.20 312.07,74.27 C312.59,76.34 315.04,82.13 317.51,87.13 C319.98,92.13 322.00,96.73 322.01,97.36 C322.01,97.99 324.03,102.68 326.49,107.78 C328.96,112.89 331.27,118.29 331.62,119.78 C332.78,124.74 342.80,144.53 346.93,150.03 C349.17,153.01 351.00,155.83 351.00,156.30 C351.00,156.77 353.25,159.74 356.00,162.91 C358.75,166.07 361.00,169.12 361.00,169.69 C361.00,170.26 361.95,171.94 363.12,173.42 C364.28,174.90 366.30,179.12 367.59,182.80 C370.49,191.00 370.62,198.34 368.42,226.50 C366.23,254.43 366.25,283.18 368.46,293.50 C369.40,297.90 370.59,303.49 371.09,305.91 C372.69,313.65 381.39,325.86 387.89,329.48 C400.46,336.49 404.31,337.26 435.50,339.04 C454.83,340.15 472.88,343.56 477.22,346.94 C478.47,347.92 480.93,349.45 482.67,350.34 C484.41,351.24 487.20,353.99 488.87,356.47 C492.22,361.43 498.00,374.51 498.00,377.13 C498.00,380.46 505.64,387.44 513.16,390.99 C517.19,392.89 520.66,394.54 520.85,394.66 C521.04,394.77 519.95,396.42 518.43,398.32 C516.20,401.12 514.76,401.91 510.90,402.42 C507.89,402.82 504.21,404.34 500.96,406.53 C498.12,408.44 495.49,410.00 495.11,410.00 C494.73,410.00 492.50,411.69 490.15,413.75 C487.81,415.81 484.56,418.55 482.93,419.83 C481.31,421.12 478.61,424.17 476.93,426.61 L 473.87 431.05 L 477.69 432.63 C479.78,433.50 483.30,435.41 485.50,436.86 C487.70,438.31 490.73,440.13 492.23,440.91 C493.74,441.69 495.83,443.12 496.88,444.10 C497.93,445.09 500.30,446.59 502.15,447.45 C503.99,448.31 507.30,450.34 509.50,451.97 C511.70,453.60 514.29,454.95 515.25,454.97 C516.21,454.99 517.00,455.38 517.00,455.84 C517.00,456.30 521.39,459.01 526.75,461.87 C532.11,464.73 537.17,467.44 538.00,467.90 C541.50,469.85 557.71,476.98 560.00,477.58 C561.38,477.94 564.35,479.07 566.60,480.08 C570.95,482.03 590.12,487.33 601.00,489.59 C604.58,490.33 612.56,491.25 618.75,491.62 L 630.00 492.31 L 630.00 495.98 L 630.00 499.65 L 623.25 500.89 C619.54,501.56 614.47,502.80 612.00,503.64 C599.42,507.90 580.91,509.02 565.94,506.44 C560.96,505.58 556.48,505.01 555.98,505.19 C555.49,505.36 555.94,507.41 556.99,509.75 C558.53,513.18 559.41,514.00 561.52,514.00 C563.71,514.00 567.37,515.30 568.89,516.61 C569.69,517.30 563.65,524.24 560.63,526.08 C558.18,527.58 555.60,527.99 548.78,528.00 C538.36,528.00 521.82,530.20 506.96,533.55 C497.75,535.63 493.54,536.00 478.96,536.00 C461.11,536.00 458.23,535.55 444.00,530.57 C437.07,528.14 432.94,526.98 421.00,524.10 C411.93,521.91 406.68,519.76 402.37,516.47 C400.59,515.11 398.88,514.00 398.57,514.00 C398.26,514.00 395.66,512.31 392.79,510.25 C387.67,506.57 387.38,506.49 376.45,506.00 L 365.32 505.50 L 352.58 499.04 C337.89,491.59 331.74,490.47 321.97,493.47 C318.96,494.39 311.98,495.40 306.45,495.71 C297.61,496.20 295.81,496.01 291.57,494.13 C288.92,492.96 286.29,492.00 285.73,492.00 C285.17,492.00 280.62,490.36 275.61,488.36 C267.85,485.26 265.02,484.65 256.50,484.25 C246.78,483.80 246.19,483.90 235.50,487.80 C229.45,490.00 223.38,492.14 222.00,492.54 C220.62,492.94 217.07,494.56 214.11,496.14 C211.14,497.71 208.15,499.00 207.46,499.00 C206.76,499.00 203.41,500.58 200.00,502.50 C196.59,504.42 193.42,506.00 192.94,506.00 C191.52,506.00 185.00,509.31 185.00,510.03 C185.00,510.40 183.09,511.49 180.75,512.45 C178.41,513.41 175.82,514.61 175.00,515.10 C174.18,515.59 169.51,518.13 164.64,520.74 C159.76,523.36 153.38,526.85 150.46,528.50 C147.54,530.15 142.07,533.18 138.32,535.24 C134.57,537.30 128.74,540.50 125.37,542.35 C122.00,544.20 118.19,546.46 116.90,547.36 C115.61,548.26 114.21,549.00 113.78,549.00 C113.35,549.00 113.00,537.75 113.00,524.00 Z" fill="rgb(254,236,0)"/>
</g>
</svg>